<mxfile host="app.diagrams.net" agent="Mozilla/5.0 (X11; Ubuntu; Linux x86_64; rv:133.0) Gecko/20100101 Firefox/133.0" version="25.0.3">
  <diagram id="C5RBs43oDa-KdzZeNtuy" name="Page-1">
    <mxGraphModel dx="838" dy="455" grid="1" gridSize="10" guides="1" tooltips="1" connect="1" arrows="1" fold="1" page="1" pageScale="1" pageWidth="1169" pageHeight="827" math="0" shadow="0">
      <root>
        <mxCell id="WIyWlLk6GJQsqaUBKTNV-0" />
        <mxCell id="WIyWlLk6GJQsqaUBKTNV-1" parent="WIyWlLk6GJQsqaUBKTNV-0" />
        <mxCell id="gRBaaWd8Njz6EDien2Q2-1" value="Context Diagram" style="swimlane;whiteSpace=wrap;html=1;" vertex="1" parent="WIyWlLk6GJQsqaUBKTNV-1">
          <mxGeometry x="410" y="190" width="200" height="260" as="geometry" />
        </mxCell>
        <mxCell id="gRBaaWd8Njz6EDien2Q2-3" value="Game" style="rounded=1;whiteSpace=wrap;html=1;" vertex="1" parent="gRBaaWd8Njz6EDien2Q2-1">
          <mxGeometry x="40" y="190" width="120" height="60" as="geometry" />
        </mxCell>
        <mxCell id="gRBaaWd8Njz6EDien2Q2-7" style="edgeStyle=orthogonalEdgeStyle;rounded=0;orthogonalLoop=1;jettySize=auto;html=1;entryX=0.25;entryY=0;entryDx=0;entryDy=0;exitX=0.25;exitY=1;exitDx=0;exitDy=0;" edge="1" parent="gRBaaWd8Njz6EDien2Q2-1" source="gRBaaWd8Njz6EDien2Q2-5">
          <mxGeometry relative="1" as="geometry">
            <mxPoint x="70" y="190" as="targetPoint" />
          </mxGeometry>
        </mxCell>
        <mxCell id="gRBaaWd8Njz6EDien2Q2-5" value="User" style="shape=process;whiteSpace=wrap;html=1;backgroundOutline=1;" vertex="1" parent="gRBaaWd8Njz6EDien2Q2-1">
          <mxGeometry x="40" y="30" width="120" height="60" as="geometry" />
        </mxCell>
        <mxCell id="gRBaaWd8Njz6EDien2Q2-8" style="edgeStyle=orthogonalEdgeStyle;rounded=0;orthogonalLoop=1;jettySize=auto;html=1;entryX=0.75;entryY=1;entryDx=0;entryDy=0;exitX=0.75;exitY=0;exitDx=0;exitDy=0;" edge="1" parent="gRBaaWd8Njz6EDien2Q2-1" target="gRBaaWd8Njz6EDien2Q2-5">
          <mxGeometry relative="1" as="geometry">
            <mxPoint x="130" y="190" as="sourcePoint" />
          </mxGeometry>
        </mxCell>
        <mxCell id="gRBaaWd8Njz6EDien2Q2-9" value="Move" style="text;html=1;align=center;verticalAlign=middle;whiteSpace=wrap;rounded=0;" vertex="1" parent="gRBaaWd8Njz6EDien2Q2-1">
          <mxGeometry x="5" y="120" width="60" height="30" as="geometry" />
        </mxCell>
        <mxCell id="gRBaaWd8Njz6EDien2Q2-10" value="Game State" style="text;html=1;align=center;verticalAlign=middle;whiteSpace=wrap;rounded=0;" vertex="1" parent="gRBaaWd8Njz6EDien2Q2-1">
          <mxGeometry x="135" y="120" width="60" height="30" as="geometry" />
        </mxCell>
        <mxCell id="gRBaaWd8Njz6EDien2Q2-24" value="" style="shape=table;startSize=0;container=1;collapsible=0;childLayout=tableLayout;" vertex="1" parent="WIyWlLk6GJQsqaUBKTNV-1">
          <mxGeometry x="640" y="191" width="186.22" height="419" as="geometry" />
        </mxCell>
        <mxCell id="gRBaaWd8Njz6EDien2Q2-25" value="" style="shape=tableRow;horizontal=0;startSize=0;swimlaneHead=0;swimlaneBody=0;strokeColor=inherit;top=0;left=0;bottom=0;right=0;collapsible=0;dropTarget=0;fillColor=none;points=[[0,0.5],[1,0.5]];portConstraint=eastwest;" vertex="1" parent="gRBaaWd8Njz6EDien2Q2-24">
          <mxGeometry width="186.22" height="46" as="geometry" />
        </mxCell>
        <mxCell id="gRBaaWd8Njz6EDien2Q2-26" value="&lt;b&gt;Player&lt;/b&gt;" style="shape=partialRectangle;html=1;whiteSpace=wrap;connectable=0;strokeColor=inherit;overflow=hidden;fillColor=none;top=0;left=0;bottom=0;right=0;pointerEvents=1;" vertex="1" parent="gRBaaWd8Njz6EDien2Q2-25">
          <mxGeometry width="94" height="46" as="geometry">
            <mxRectangle width="94" height="46" as="alternateBounds" />
          </mxGeometry>
        </mxCell>
        <mxCell id="gRBaaWd8Njz6EDien2Q2-27" value="&lt;div&gt;&lt;b&gt;Game&lt;br&gt;&lt;/b&gt;&lt;/div&gt;" style="shape=partialRectangle;html=1;whiteSpace=wrap;connectable=0;strokeColor=inherit;overflow=hidden;fillColor=none;top=0;left=0;bottom=0;right=0;pointerEvents=1;" vertex="1" parent="gRBaaWd8Njz6EDien2Q2-25">
          <mxGeometry x="94" width="92" height="46" as="geometry">
            <mxRectangle width="92" height="46" as="alternateBounds" />
          </mxGeometry>
        </mxCell>
        <mxCell id="gRBaaWd8Njz6EDien2Q2-28" value="" style="shape=tableRow;horizontal=0;startSize=0;swimlaneHead=0;swimlaneBody=0;strokeColor=inherit;top=0;left=0;bottom=0;right=0;collapsible=0;dropTarget=0;fillColor=none;points=[[0,0.5],[1,0.5]];portConstraint=eastwest;" vertex="1" parent="gRBaaWd8Njz6EDien2Q2-24">
          <mxGeometry y="46" width="186.22" height="46" as="geometry" />
        </mxCell>
        <mxCell id="gRBaaWd8Njz6EDien2Q2-29" value="Move" style="shape=partialRectangle;html=1;whiteSpace=wrap;connectable=0;strokeColor=inherit;overflow=hidden;fillColor=none;top=0;left=0;bottom=0;right=0;pointerEvents=1;" vertex="1" parent="gRBaaWd8Njz6EDien2Q2-28">
          <mxGeometry width="94" height="46" as="geometry">
            <mxRectangle width="94" height="46" as="alternateBounds" />
          </mxGeometry>
        </mxCell>
        <mxCell id="gRBaaWd8Njz6EDien2Q2-30" value="Updated Game State" style="shape=partialRectangle;html=1;whiteSpace=wrap;connectable=0;strokeColor=inherit;overflow=hidden;fillColor=none;top=0;left=0;bottom=0;right=0;pointerEvents=1;" vertex="1" parent="gRBaaWd8Njz6EDien2Q2-28">
          <mxGeometry x="94" width="92" height="46" as="geometry">
            <mxRectangle width="92" height="46" as="alternateBounds" />
          </mxGeometry>
        </mxCell>
        <mxCell id="gRBaaWd8Njz6EDien2Q2-31" value="" style="shape=tableRow;horizontal=0;startSize=0;swimlaneHead=0;swimlaneBody=0;strokeColor=inherit;top=0;left=0;bottom=0;right=0;collapsible=0;dropTarget=0;fillColor=none;points=[[0,0.5],[1,0.5]];portConstraint=eastwest;" vertex="1" parent="gRBaaWd8Njz6EDien2Q2-24">
          <mxGeometry y="92" width="186.22" height="48" as="geometry" />
        </mxCell>
        <mxCell id="gRBaaWd8Njz6EDien2Q2-32" value="View Lobbies" style="shape=partialRectangle;html=1;whiteSpace=wrap;connectable=0;strokeColor=inherit;overflow=hidden;fillColor=none;top=0;left=0;bottom=0;right=0;pointerEvents=1;" vertex="1" parent="gRBaaWd8Njz6EDien2Q2-31">
          <mxGeometry width="94" height="48" as="geometry">
            <mxRectangle width="94" height="48" as="alternateBounds" />
          </mxGeometry>
        </mxCell>
        <mxCell id="gRBaaWd8Njz6EDien2Q2-33" value="All Local Lobbies" style="shape=partialRectangle;html=1;whiteSpace=wrap;connectable=0;strokeColor=inherit;overflow=hidden;fillColor=none;top=0;left=0;bottom=0;right=0;pointerEvents=1;" vertex="1" parent="gRBaaWd8Njz6EDien2Q2-31">
          <mxGeometry x="94" width="92" height="48" as="geometry">
            <mxRectangle width="92" height="48" as="alternateBounds" />
          </mxGeometry>
        </mxCell>
        <mxCell id="gRBaaWd8Njz6EDien2Q2-34" value="" style="shape=tableRow;horizontal=0;startSize=0;swimlaneHead=0;swimlaneBody=0;strokeColor=inherit;top=0;left=0;bottom=0;right=0;collapsible=0;dropTarget=0;fillColor=none;points=[[0,0.5],[1,0.5]];portConstraint=eastwest;" vertex="1" parent="gRBaaWd8Njz6EDien2Q2-24">
          <mxGeometry y="140" width="186.22" height="46" as="geometry" />
        </mxCell>
        <mxCell id="gRBaaWd8Njz6EDien2Q2-35" value="Join Lobby" style="shape=partialRectangle;html=1;whiteSpace=wrap;connectable=0;strokeColor=inherit;overflow=hidden;fillColor=none;top=0;left=0;bottom=0;right=0;pointerEvents=1;" vertex="1" parent="gRBaaWd8Njz6EDien2Q2-34">
          <mxGeometry width="94" height="46" as="geometry">
            <mxRectangle width="94" height="46" as="alternateBounds" />
          </mxGeometry>
        </mxCell>
        <mxCell id="gRBaaWd8Njz6EDien2Q2-36" value="Connect to Game Server" style="shape=partialRectangle;html=1;whiteSpace=wrap;connectable=0;strokeColor=inherit;overflow=hidden;fillColor=none;top=0;left=0;bottom=0;right=0;pointerEvents=1;" vertex="1" parent="gRBaaWd8Njz6EDien2Q2-34">
          <mxGeometry x="94" width="92" height="46" as="geometry">
            <mxRectangle width="92" height="46" as="alternateBounds" />
          </mxGeometry>
        </mxCell>
        <mxCell id="gRBaaWd8Njz6EDien2Q2-37" value="" style="shape=tableRow;horizontal=0;startSize=0;swimlaneHead=0;swimlaneBody=0;strokeColor=inherit;top=0;left=0;bottom=0;right=0;collapsible=0;dropTarget=0;fillColor=none;points=[[0,0.5],[1,0.5]];portConstraint=eastwest;" vertex="1" parent="gRBaaWd8Njz6EDien2Q2-24">
          <mxGeometry y="186" width="186.22" height="47" as="geometry" />
        </mxCell>
        <mxCell id="gRBaaWd8Njz6EDien2Q2-38" value="Create Lobby" style="shape=partialRectangle;html=1;whiteSpace=wrap;connectable=0;strokeColor=inherit;overflow=hidden;fillColor=none;top=0;left=0;bottom=0;right=0;pointerEvents=1;" vertex="1" parent="gRBaaWd8Njz6EDien2Q2-37">
          <mxGeometry width="94" height="47" as="geometry">
            <mxRectangle width="94" height="47" as="alternateBounds" />
          </mxGeometry>
        </mxCell>
        <mxCell id="gRBaaWd8Njz6EDien2Q2-39" value="Empty Lobby" style="shape=partialRectangle;html=1;whiteSpace=wrap;connectable=0;strokeColor=inherit;overflow=hidden;fillColor=none;top=0;left=0;bottom=0;right=0;pointerEvents=1;" vertex="1" parent="gRBaaWd8Njz6EDien2Q2-37">
          <mxGeometry x="94" width="92" height="47" as="geometry">
            <mxRectangle width="92" height="47" as="alternateBounds" />
          </mxGeometry>
        </mxCell>
        <mxCell id="gRBaaWd8Njz6EDien2Q2-40" value="" style="shape=tableRow;horizontal=0;startSize=0;swimlaneHead=0;swimlaneBody=0;strokeColor=inherit;top=0;left=0;bottom=0;right=0;collapsible=0;dropTarget=0;fillColor=none;points=[[0,0.5],[1,0.5]];portConstraint=eastwest;" vertex="1" parent="gRBaaWd8Njz6EDien2Q2-24">
          <mxGeometry y="233" width="186.22" height="46" as="geometry" />
        </mxCell>
        <mxCell id="gRBaaWd8Njz6EDien2Q2-41" value="Start Game" style="shape=partialRectangle;html=1;whiteSpace=wrap;connectable=0;strokeColor=inherit;overflow=hidden;fillColor=none;top=0;left=0;bottom=0;right=0;pointerEvents=1;" vertex="1" parent="gRBaaWd8Njz6EDien2Q2-40">
          <mxGeometry width="94" height="46" as="geometry">
            <mxRectangle width="94" height="46" as="alternateBounds" />
          </mxGeometry>
        </mxCell>
        <mxCell id="gRBaaWd8Njz6EDien2Q2-42" value="Initial Game State" style="shape=partialRectangle;html=1;whiteSpace=wrap;connectable=0;strokeColor=inherit;overflow=hidden;fillColor=none;top=0;left=0;bottom=0;right=0;pointerEvents=1;" vertex="1" parent="gRBaaWd8Njz6EDien2Q2-40">
          <mxGeometry x="94" width="92" height="46" as="geometry">
            <mxRectangle width="92" height="46" as="alternateBounds" />
          </mxGeometry>
        </mxCell>
        <mxCell id="gRBaaWd8Njz6EDien2Q2-43" value="" style="shape=tableRow;horizontal=0;startSize=0;swimlaneHead=0;swimlaneBody=0;strokeColor=inherit;top=0;left=0;bottom=0;right=0;collapsible=0;dropTarget=0;fillColor=none;points=[[0,0.5],[1,0.5]];portConstraint=eastwest;" vertex="1" parent="gRBaaWd8Njz6EDien2Q2-24">
          <mxGeometry y="279" width="186.22" height="48" as="geometry" />
        </mxCell>
        <mxCell id="gRBaaWd8Njz6EDien2Q2-44" value="End Game" style="shape=partialRectangle;html=1;whiteSpace=wrap;connectable=0;strokeColor=inherit;overflow=hidden;fillColor=none;top=0;left=0;bottom=0;right=0;pointerEvents=1;" vertex="1" parent="gRBaaWd8Njz6EDien2Q2-43">
          <mxGeometry width="94" height="48" as="geometry">
            <mxRectangle width="94" height="48" as="alternateBounds" />
          </mxGeometry>
        </mxCell>
        <mxCell id="gRBaaWd8Njz6EDien2Q2-45" value="Score Screen" style="shape=partialRectangle;html=1;whiteSpace=wrap;connectable=0;strokeColor=inherit;overflow=hidden;fillColor=none;top=0;left=0;bottom=0;right=0;pointerEvents=1;" vertex="1" parent="gRBaaWd8Njz6EDien2Q2-43">
          <mxGeometry x="94" width="92" height="48" as="geometry">
            <mxRectangle width="92" height="48" as="alternateBounds" />
          </mxGeometry>
        </mxCell>
        <mxCell id="gRBaaWd8Njz6EDien2Q2-46" value="" style="shape=tableRow;horizontal=0;startSize=0;swimlaneHead=0;swimlaneBody=0;strokeColor=inherit;top=0;left=0;bottom=0;right=0;collapsible=0;dropTarget=0;fillColor=none;points=[[0,0.5],[1,0.5]];portConstraint=eastwest;" vertex="1" parent="gRBaaWd8Njz6EDien2Q2-24">
          <mxGeometry y="327" width="186.22" height="46" as="geometry" />
        </mxCell>
        <mxCell id="gRBaaWd8Njz6EDien2Q2-47" value="N/A" style="shape=partialRectangle;html=1;whiteSpace=wrap;connectable=0;strokeColor=inherit;overflow=hidden;fillColor=none;top=0;left=0;bottom=0;right=0;pointerEvents=1;" vertex="1" parent="gRBaaWd8Njz6EDien2Q2-46">
          <mxGeometry width="94" height="46" as="geometry">
            <mxRectangle width="94" height="46" as="alternateBounds" />
          </mxGeometry>
        </mxCell>
        <mxCell id="gRBaaWd8Njz6EDien2Q2-48" value="Other Player Move: Update Game State" style="shape=partialRectangle;html=1;whiteSpace=wrap;connectable=0;strokeColor=inherit;overflow=hidden;fillColor=none;top=0;left=0;bottom=0;right=0;pointerEvents=1;" vertex="1" parent="gRBaaWd8Njz6EDien2Q2-46">
          <mxGeometry x="94" width="92" height="46" as="geometry">
            <mxRectangle width="92" height="46" as="alternateBounds" />
          </mxGeometry>
        </mxCell>
        <mxCell id="gRBaaWd8Njz6EDien2Q2-49" value="" style="shape=tableRow;horizontal=0;startSize=0;swimlaneHead=0;swimlaneBody=0;strokeColor=inherit;top=0;left=0;bottom=0;right=0;collapsible=0;dropTarget=0;fillColor=none;points=[[0,0.5],[1,0.5]];portConstraint=eastwest;" vertex="1" parent="gRBaaWd8Njz6EDien2Q2-24">
          <mxGeometry y="373" width="186.22" height="46" as="geometry" />
        </mxCell>
        <mxCell id="gRBaaWd8Njz6EDien2Q2-50" value="Quit" style="shape=partialRectangle;html=1;whiteSpace=wrap;connectable=0;strokeColor=inherit;overflow=hidden;fillColor=none;top=0;left=0;bottom=0;right=0;pointerEvents=1;" vertex="1" parent="gRBaaWd8Njz6EDien2Q2-49">
          <mxGeometry width="94" height="46" as="geometry">
            <mxRectangle width="94" height="46" as="alternateBounds" />
          </mxGeometry>
        </mxCell>
        <mxCell id="gRBaaWd8Njz6EDien2Q2-51" value="Close Game" style="shape=partialRectangle;html=1;whiteSpace=wrap;connectable=0;strokeColor=inherit;overflow=hidden;fillColor=none;top=0;left=0;bottom=0;right=0;pointerEvents=1;" vertex="1" parent="gRBaaWd8Njz6EDien2Q2-49">
          <mxGeometry x="94" width="92" height="46" as="geometry">
            <mxRectangle width="92" height="46" as="alternateBounds" />
          </mxGeometry>
        </mxCell>
      </root>
    </mxGraphModel>
  </diagram>
</mxfile>
